<svg width="17" height="17" viewBox="0 0 17 17" fill="none" xmlns="http://www.w3.org/2000/svg">
<path fill-rule="evenodd" clip-rule="evenodd" d="M12.2803 0.21967C11.9874 -0.0732233 11.5126 -0.0732233 11.2197 0.21967L1.21968 10.2197C1.11498 10.3244 1.04362 10.4577 1.01458 10.6029L0.0145767 15.6029C-0.0346024 15.8488 0.0423645 16.103 0.219682 16.2803C0.397 16.4576 0.651204 16.5346 0.897099 16.4854L5.8971 15.4854C6.04229 15.4564 6.17564 15.385 6.28034 15.2803L13.7789 7.78174L13.7803 7.78033L13.7818 7.77891L16.2803 5.28033C16.5732 4.98744 16.5732 4.51256 16.2803 4.21967L12.2803 0.21967ZM13.25 6.18934L14.6894 4.75L11.75 1.81066L10.3107 3.25L13.25 6.18934ZM9.25001 4.31066L2.44091 11.1198L1.70608 14.7939L5.38025 14.0591L12.1894 7.25L9.25001 4.31066Z" fill="white"/>
</svg>
