<svg width="16" height="17" viewBox="0 0 16 17" fill="none" xmlns="http://www.w3.org/2000/svg">
<path d="M14.5 0.75C14.5 0.335786 14.1642 0 13.75 0C13.3358 0 13 0.335786 13 0.75V3.10237C11.6617 1.66726 9.84217 0.75 7.75 0.75C3.46979 0.75 0 4.21979 0 8.5C0 12.7802 3.46979 16.25 7.75 16.25C12.0302 16.25 15.5 12.7802 15.5 8.5C15.5 8.08579 15.1642 7.75 14.75 7.75C14.3358 7.75 14 8.08579 14 8.5C14 11.9518 11.2018 14.75 7.75 14.75C4.29821 14.75 1.5 11.9518 1.5 8.5C1.5 5.04821 4.29821 2.25 7.75 2.25C9.63577 2.25 11.2946 3.21199 12.4209 4.75H9C8.58579 4.75 8.25 5.08579 8.25 5.5C8.25 5.91421 8.58579 6.25 9 6.25H13.75C14.1642 6.25 14.5 5.91421 14.5 5.5V0.75Z" fill="#181B2B"/>
</svg>
