<svg width="16" height="16" viewBox="0 0 16 16" fill="none" xmlns="http://www.w3.org/2000/svg">
<path d="M11.7803 6.28033C12.0732 5.98744 12.0732 5.51256 11.7803 5.21967C11.4874 4.92678 11.0126 4.92678 10.7197 5.21967L6.91667 9.02267L5.28033 7.38634C4.98744 7.09344 4.51256 7.09344 4.21967 7.38634C3.92678 7.67923 3.92678 8.1541 4.21967 8.447L6.38634 10.6137C6.67923 10.9066 7.1541 10.9066 7.447 10.6137L11.7803 6.28033Z" fill="white"/>
<path fill-rule="evenodd" clip-rule="evenodd" d="M7.75 0C3.46979 0 0 3.46979 0 7.75C0 12.0302 3.46979 15.5 7.75 15.5C12.0302 15.5 15.5 12.0302 15.5 7.75C15.5 3.46979 12.0302 0 7.75 0ZM1.5 7.75C1.5 4.29822 4.29822 1.5 7.75 1.5C11.2018 1.5 14 4.29822 14 7.75C14 11.2018 11.2018 14 7.75 14C4.29822 14 1.5 11.2018 1.5 7.75Z" fill="white"/>
</svg>
